PathFileType   4   (X/Y/Z)
DataRate	CameraRate	NumFrames	NumMarkers	Units	OrigDataRate	OrigDataStartFrame	OrigNumFrames
120.0	120.0	11	37	mm	120.0	118	156
Frame#	Time	midhip	hip_r	hip_l	knee_r	knee_l	ankle_r	ankle_l	midasis	asis_r	asis_l	psis_r	psis_l	epicondLat_r	epicondLat_l	epicondMed_r	epicondMed_l	malleolusLat_r	malleolusLat_l	malleolusMedv_r	malleolusMedv_l	neck	subclavicle_r	subclavicle_l	sternalnotch	xyphoidprocess	thighwand_r	thighwand_l	upperleg1_r	upperleg1_l	upperleg2_r	upperleg2_l	shankwand_r	shankwand_l	lowerleg1_r	lowerleg1_l	toe_r	toe_l
 	 	X1	Y1	Z1	X2	Y2	Z2	X3	Y3	Z3	X4	Y4	Z4	X5	Y5	Z5	X6	Y6	Z6	X7	Y7	Z7	X8	Y8	Z8	X9	Y9	Z9	X10	Y10	Z10	X11	Y11	Z11	X12	Y12	Z12	X13	Y13	Z13	X14	Y14	Z14	X15	Y15	Z15	X16	Y16	Z16	X17	Y17	Z17	X18	Y18	Z18	X19	Y19	Z19	X20	Y20	Z20	X21	Y21	Z21	X22	Y22	Z22	X23	Y23	Z23	X24	Y24	Z24	X25	Y25	Z25	X26	Y26	Z26	X27	Y27	Z27	X28	Y28	Z28	X29	Y29	Z29	X30	Y30	Z30	X31	Y31	Z31	X32	Y32	Z32	X33	Y33	Z33	X34	Y34	Z34	X35	Y35	Z35	X36	Y36	Z36	X37	Y37	Z37

	118	1.19167	-1563.321	903.456	229.783	-1556.334	893.351	284.972	-1566.071	894.673	178.856	-1538.873	488.111	274.790	-1442.853	494.817	153.000	-1585.709	70.631	256.883	-1642.633	129.610	145.152	-1484.297	992.130	226.079	-1474.792	990.839	329.672	-1493.803	993.420	122.487	-1682.347	1015.862	275.037	-1690.209	1015.265	190.664	-1530.524	486.991	333.691	-1443.785	498.370	93.614	-1546.156	501.216	216.789	-1441.572	487.317	204.286	-1590.066	69.502	294.615	-1649.185	134.026	106.450	-1586.174	78.229	224.198	-1632.205	137.955	173.961	-1613.367	1470.996	256.504	-1512.385	1395.074	332.970	-1517.844	1405.758	177.823	-1527.578	1401.883	251.962	-1488.709	1201.822	230.052	-1502.899	588.985	418.956	-1329.382	652.728	135.215	-1486.815	652.518	350.396	-1420.150	688.589	100.672	-1485.750	572.953	323.987	-1405.809	602.111	105.640	-1569.286	140.594	364.869	-1501.866	184.481	139.390	-1581.803	202.070	306.710	-1536.753	259.283	137.550	-1461.588	43.103	249.280	-1539.280	64.527	135.209
	119	1.20000	-1558.566	903.427	230.058	-1552.168	893.206	285.112	-1561.362	894.676	178.950	-1537.445	487.940	275.298	-1434.741	495.337	153.778	-1585.653	70.636	257.086	-1624.152	124.689	146.540	-1479.789	992.034	226.723	-1470.812	990.598	330.386	-1488.767	993.469	123.061	-1677.777	1015.793	274.913	-1685.321	1015.238	190.532	-1529.032	486.819	334.190	-1435.427	498.863	94.387	-1543.951	501.006	217.309	-1434.096	488.262	205.179	-1590.083	69.501	294.810	-1630.497	128.689	107.759	-1586.120	78.402	224.377	-1614.153	133.511	175.356	-1608.391	1470.959	256.858	-1507.553	1395.016	333.324	-1512.802	1405.724	178.154	-1522.636	1401.842	252.288	-1483.796	1201.772	230.404	-1500.590	588.838	419.443	-1322.702	654.413	136.507	-1484.272	652.214	350.850	-1413.629	689.510	101.323	-1483.419	572.657	324.508	-1398.642	603.154	106.536	-1569.186	140.527	365.151	-1484.906	183.607	141.612	-1581.421	202.120	307.028	-1522.086	257.353	138.977	-1461.787	43.108	249.426	-1518.587	63.107	137.419
	120	1.20833	-1553.821	903.342	230.322	-1547.926	893.049	285.279	-1556.601	894.640	179.074	-1535.996	487.770	275.799	-1426.776	495.785	154.560	-1585.581	70.622	257.269	-1605.481	119.893	147.953	-1475.223	991.910	227.352	-1466.750	990.357	331.075	-1483.695	993.464	123.630	-1673.186	1015.706	274.766	-1680.411	1015.186	190.373	-1527.523	486.642	334.682	-1427.214	499.292	95.165	-1543.392	501.142	218.091	-1426.971	488.983	205.839	-1590.084	69.482	294.984	-1611.619	123.494	109.099	-1586.063	78.542	224.537	-1596.081	129.148	176.734	-1603.421	1470.908	257.134	-1502.751	1394.933	333.734	-1507.765	1405.625	178.509	-1517.711	1401.757	252.652	-1478.946	1201.663	230.852	-1498.263	588.672	419.910	-1316.095	655.975	137.808	-1481.612	651.908	351.293	-1407.206	690.372	102.076	-1481.677	572.168	324.951	-1391.703	604.065	107.378	-1569.071	140.454	365.411	-1467.844	182.929	143.805	-1581.008	202.127	307.300	-1507.294	255.571	140.395	-1461.996	43.123	249.609	-1497.760	61.878	139.748
	121	1.21667	-1549.044	903.239	230.573	-1543.551	892.884	285.486	-1551.762	894.563	179.246	-1534.504	487.606	276.288	-1418.944	496.192	155.353	-1585.521	70.596	257.433	-1586.640	115.226	149.386	-1470.560	991.765	227.957	-1462.540	990.125	331.728	-1478.580	993.405	124.185	-1668.565	1015.601	274.599	-1675.472	1015.107	190.184	-1525.991	486.460	335.165	-1419.150	499.685	95.956	-1547.285	502.294	219.664	-1419.816	489.480	206.342	-1590.090	69.450	295.140	-1592.604	118.461	110.473	-1585.584	78.638	224.641	-1578.109	124.884	178.170	-1598.443	1470.803	257.362	-1497.872	1394.828	334.135	-1502.694	1405.481	178.872	-1512.731	1401.633	253.018	-1473.968	1201.528	231.320	-1495.927	588.482	420.351	-1309.577	657.400	139.090	-1478.955	651.636	351.756	-1400.881	691.140	102.908	-1481.667	571.270	325.201	-1384.832	604.888	108.186	-1568.936	140.366	365.646	-1450.714	182.462	145.883	-1580.591	202.112	307.576	-1492.422	253.823	141.795	-1462.215	43.149	249.828	-1476.834	60.863	142.171
	122	1.22500	-1544.230	903.119	230.808	-1539.022	892.712	285.738	-1546.835	894.444	179.469	-1532.960	487.439	276.764	-1411.237	496.564	156.154	-1585.473	70.557	257.575	-1567.613	110.708	150.832	-1465.790	991.601	228.529	-1458.158	989.909	332.342	-1473.423	993.293	124.716	-1663.909	1015.477	274.413	-1670.507	1014.995	189.966	-1524.427	486.263	335.637	-1411.236	500.045	96.756	-1545.017	502.313	219.917	-1412.607	489.827	206.688	-1590.099	69.405	295.275	-1573.455	113.613	111.875	-1584.558	78.689	224.701	-1559.890	120.824	179.604	-1593.419	1470.643	257.587	-1492.838	1394.619	334.391	-1497.560	1405.251	179.076	-1507.645	1401.415	253.240	-1468.894	1201.302	231.600	-1493.572	588.263	420.762	-1303.163	658.684	140.331	-1476.352	651.335	352.180	-1394.629	691.826	103.727	-1479.282	571.021	325.567	-1377.978	605.662	108.922	-1568.779	140.263	365.858	-1433.552	182.187	147.792	-1580.152	202.094	307.852	-1477.582	252.170	143.183	-1462.423	43.192	250.086	-1455.860	60.084	144.639
	123	1.23333	-1539.391	902.970	231.031	-1534.396	892.522	286.006	-1541.852	894.277	179.712	-1531.375	487.257	277.219	-1403.649	496.908	156.953	-1585.438	70.512	257.697	-1548.400	106.378	152.291	-1460.946	991.403	229.064	-1453.662	989.688	332.909	-1468.230	993.118	125.219	-1659.218	1015.336	274.211	-1665.520	1014.846	189.729	-1522.823	486.044	336.089	-1403.462	500.375	97.555	-1543.163	502.170	220.454	-1405.630	490.201	207.224	-1590.112	69.353	295.391	-1554.178	108.986	113.303	-1583.885	78.713	224.841	-1541.269	116.978	181.044	-1588.366	1470.443	257.759	-1487.798	1394.362	334.687	-1492.358	1405.001	179.223	-1502.520	1401.162	253.448	-1463.758	1201.046	231.853	-1491.170	588.007	421.140	-1296.870	659.843	141.518	-1473.681	650.976	352.553	-1388.384	692.358	104.491	-1477.027	570.629	326.003	-1371.244	606.334	109.702	-1568.601	140.150	366.048	-1416.421	182.085	149.520	-1579.682	202.087	308.114	-1462.726	250.711	144.465	-1462.631	43.241	250.349	-1434.902	59.549	147.089
	124	1.24167	-1534.556	902.757	231.254	-1529.713	892.302	286.264	-1536.834	894.065	179.947	-1529.745	487.059	277.645	-1396.174	497.226	157.750	-1585.423	70.474	257.793	-1529.042	102.287	153.779	-1456.053	991.162	229.558	-1449.096	989.440	333.428	-1463.010	992.885	125.688	-1654.492	1015.179	273.990	-1660.510	1014.658	189.481	-1521.172	485.806	336.511	-1395.830	500.671	98.350	-1541.385	502.094	221.019	-1398.915	490.641	208.105	-1590.135	69.308	295.482	-1534.811	104.620	114.772	-1584.186	78.764	225.024	-1522.033	113.303	182.673	-1583.299	1470.203	257.829	-1482.939	1394.139	335.094	-1487.178	1404.733	179.551	-1497.493	1400.919	253.790	-1458.736	1200.786	232.340	-1488.716	587.724	421.481	-1290.716	660.897	142.631	-1470.923	650.604	352.932	-1382.229	692.724	105.203	-1474.763	570.254	326.454	-1364.711	606.861	110.580	-1568.401	140.029	366.216	-1399.405	182.173	151.097	-1579.229	202.081	308.366	-1447.806	249.365	145.674	-1462.806	43.281	250.579	-1414.021	59.255	149.467
	125	1.25000	-1529.730	902.466	231.490	-1524.985	892.051	286.497	-1531.783	893.815	180.159	-1528.061	486.848	278.033	-1388.828	497.501	158.551	-1585.422	70.457	257.862	-1509.602	98.469	155.317	-1451.122	990.887	230.014	-1444.480	989.164	333.908	-1457.763	992.611	126.119	-1649.729	1014.999	273.749	-1655.466	1014.427	189.229	-1519.470	485.553	336.895	-1388.351	500.911	99.151	-1539.577	502.066	221.498	-1392.358	490.992	208.858	-1590.155	69.283	295.548	-1515.408	100.542	116.301	-1584.753	78.859	225.095	-1502.411	109.887	184.364	-1578.209	1469.929	257.885	-1478.068	1393.869	335.398	-1481.971	1404.387	179.969	-1492.446	1400.615	254.124	-1453.733	1200.455	232.844	-1486.218	587.425	421.786	-1284.698	661.853	143.670	-1468.163	650.235	353.324	-1376.251	693.112	105.931	-1472.475	569.848	326.845	-1358.365	607.324	111.397	-1568.164	139.895	366.362	-1382.523	182.475	152.571	-1578.794	202.043	308.643	-1433.000	248.142	146.947	-1462.876	43.313	250.780	-1393.263	59.188	151.748
	126	1.25833	-1524.829	902.174	231.728	-1520.247	891.759	286.679	-1526.707	893.533	180.320	-1526.305	486.616	278.380	-1381.634	497.712	159.359	-1585.408	70.463	257.908	-1490.155	94.944	156.921	-1446.169	990.573	230.437	-1439.857	988.840	334.357	-1452.481	992.306	126.517	-1644.921	1014.789	273.490	-1650.378	1014.153	188.977	-1517.704	485.281	337.240	-1381.034	501.078	99.957	-1537.969	501.998	222.040	-1386.000	491.240	209.499	-1590.150	69.282	295.592	-1496.023	96.761	117.902	-1584.665	78.965	225.061	-1483.263	106.784	185.842	-1573.113	1469.632	257.968	-1473.116	1393.571	335.646	-1476.726	1404.040	180.292	-1487.341	1400.293	254.386	-1448.622	1200.121	233.236	-1483.679	587.108	422.063	-1278.777	662.705	144.659	-1465.422	649.849	353.666	-1370.344	693.440	106.626	-1470.257	569.394	327.203	-1352.142	607.687	112.147	-1567.869	139.746	366.479	-1365.742	182.994	153.999	-1578.327	201.988	308.926	-1418.376	247.070	148.306	-1462.818	43.332	250.936	-1372.651	59.326	153.930
	127	1.26667	-1519.822	901.911	231.958	-1515.503	891.420	286.809	-1521.598	893.216	180.429	-1524.451	486.356	278.691	-1374.592	497.849	160.166	-1585.379	70.486	257.926	-1470.767	91.722	158.595	-1441.197	990.217	230.840	-1435.242	988.462	334.787	-1447.153	991.972	126.893	-1640.067	1014.541	273.221	-1645.248	1013.836	188.730	-1515.855	484.986	337.551	-1373.873	501.161	100.762	-1536.272	501.851	222.615	-1379.642	491.433	210.211	-1590.116	69.298	295.611	-1476.712	93.281	119.576	-1584.416	79.069	225.086	-1464.380	103.945	187.339	-1567.992	1469.304	258.002	-1468.173	1393.270	335.904	-1471.484	1403.654	180.486	-1482.241	1399.951	254.587	-1443.532	1199.757	233.625	-1481.096	586.765	422.317	-1272.929	663.447	145.605	-1462.640	649.453	353.902	-1364.510	693.638	107.260	-1467.970	569.014	327.555	-1345.966	607.955	112.893	-1567.510	139.585	366.561	-1349.074	183.724	155.418	-1577.806	201.957	309.157	-1403.776	246.174	149.650	-1462.654	43.332	251.028	-1352.198	59.642	156.017
	128	1.27500	-1514.811	901.555	232.186	-1510.734	891.040	286.912	-1516.435	892.860	180.510	-1522.471	486.072	278.965	-1367.676	497.905	160.967	-1585.326	70.513	257.908	-1451.454	88.806	160.335	-1436.188	989.823	231.238	-1430.616	988.045	335.220	-1441.760	991.602	127.256	-1635.163	1014.245	272.951	-1640.071	1013.474	188.488	-1513.903	484.668	337.828	-1366.847	501.157	101.562	-1534.375	501.616	223.157	-1372.998	491.513	210.882	-1590.048	69.318	295.594	-1457.483	90.101	121.319	-1584.401	79.166	225.128	-1445.358	101.350	189.029	-1562.845	1468.923	257.994	-1463.205	1392.987	336.049	-1466.450	1403.147	180.661	-1477.237	1399.560	254.740	-1438.679	1199.306	234.080	-1478.469	586.395	422.551	-1267.136	664.057	146.507	-1459.760	649.061	354.095	-1358.801	693.814	107.954	-1465.566	568.567	327.880	-1339.768	608.208	113.636	-1567.084	139.413	366.600	-1332.559	184.659	156.836	-1577.206	201.963	309.333	-1389.123	245.481	150.951	-1462.430	43.309	251.069	-1331.921	60.121	158.009
